<svg version="1.1" xmlns="http://www.w3.org/2000/svg" xmlns:xlink="http://www.w3.org/1999/xlink" viewBox="0 0 43 36" xml:space="preserve">
    <path d="M19,0.4L3.1,7c-0.9,0.4-0.9,1.6,0,2L19,15.3c1.4,0.6,3,0.6,4.3,0L39.3,9c0.9-0.4,0.9-1.6,0-2L23.5,0.4 C22-0.1,20.4-0.1,19,0.4 " fill="#0C3148"/>
    <path d="M22.6,18.7v15.7c0,0.7,0.8,1.3,1.5,1l17.7-6.9 c0.4-0.2,0.7-0.6,0.7-1V11.8c0-0.7-0.8-1.3-1.5-1l-17.7,6.9C22.9,17.9,22.6,18.3,22.6,18.7" fill="#0C3148"/>
    <path d="M18.5,19.5l-5.3,2.5l-0.5,0.3L1.6,27.6 C0.9,28,0,27.5,0,26.7V11.9c0-0.3,0.1-0.5,0.3-0.7C0.4,11.1,0.5,11,0.6,11c0.3-0.2,0.6-0.2,1-0.1l16.8,6.7 C19.3,17.9,19.3,19.1,18.5,19.5" fill="#0C3148"/>
</svg>
